<?xml version="1.0" encoding="UTF-8"?>
<svg id="Layer_1" xmlns="http://www.w3.org/2000/svg" version="1.1" viewBox="0 0 456.85 82.03">
  <!-- Generator: Adobe Illustrator 29.4.0, SVG Export Plug-In . SVG Version: 2.1.0 Build 152)  -->
  <path d="M35.19,76.6H4.49L15.5,7.18h68.95c15.96,0,24.82,5.23,24.82,16.42s-9.42,16.8-17.73,18.29c8.49,2.52,13.9,8.3,12.5,17.35l-1.68,9.98c-.65,4.01-.19,5.69.19,6.81l-.09.56h-31.54c-.28-.56-.37-1.68-.09-3.27l1.31-7.84c1.21-7.46-1.77-11.85-11.85-11.85h-21.46l-3.64,22.95ZM69.15,35.36c5.88,0,7.65-2.99,7.65-5.69s-1.59-4.48-6.34-4.48h-27.15l-1.68,10.17h27.53Z"/>
  <path d="M157.88,77.91c-40.22,0-48.33-17.45-48.33-31.35,0-1.87.09-4.48.47-7.18,1.87-14,10.17-33.5,54.03-33.5h4.39c41.06,0,48.52,17.36,48.52,30.79,0,2.52-.28,5.23-.65,7.56-2.24,13.81-9.7,33.68-53.93,33.68h-4.48ZM164.6,26.4c-17.17,0-22.21,7.65-22.95,14.28-.09.75-.19,1.68-.19,3.08,0,6.34,4.57,13.44,20.25,13.44,16.89,0,22.02-7.56,23.05-14.46.19-1.31.28-2.43.28-3.45,0-6.34-4.67-12.88-20.43-12.88Z"/>
  <path d="M216.1,76.6l11.01-69.42h30.7l-4.11,25.75,35.27-25.75h37.88l-44.13,32.28,34.15,37.14h-39.28l-26.13-29.21-4.67,29.21h-30.7Z"/>
  <path d="M349.16,76.6h-30.7l11.01-69.42h30.7l-11.01,69.42Z"/>
  <path d="M391.24,28.92h-29.02l3.36-21.74h88.92l-3.45,21.74h-29.02l-7.56,47.68h-30.79l7.56-47.68Z"/>
</svg>